<svg xmlns="http://www.w3.org/2000/svg" width="256" height="256" viewBox="0 0 256 256">
<defs>
  <linearGradient id="bg" x1="0" y1="0" x2="0" y2="1">
    <stop offset="0%" stop-color="#2B3039"></stop>
    <stop offset="100%" stop-color="#23272F"></stop>
  </linearGradient>

  <linearGradient id="silver" x1="0" y1="0" x2="1" y2="1">
    <stop offset="0%" stop-color="#C9D1D9"></stop>
    <stop offset="100%" stop-color="#AEB7C2"></stop>
  </linearGradient>
</defs>

<rect x="8" y="8" width="240" height="240" rx="56" fill="url(#bg)" stroke="#444B56" stroke-width="1.5"></rect>

<rect x="76" y="52" width="104" height="152" rx="20" fill="url(#silver)" stroke="#DCE2E8" stroke-width="3"></rect>

<rect x="94" y="72" width="68" height="26" rx="8" fill="#6B7682"></rect>

<rect x="92" y="122" width="24" height="24" rx="6" fill="#7A8491"></rect>
<rect x="140" y="122" width="24" height="24" rx="6" fill="#7A8491"></rect>
<rect x="92" y="164" width="24" height="24" rx="6" fill="#7A8491"></rect>
<rect x="140" y="164" width="24" height="24" rx="6" fill="#7A8491"></rect>

<rect x="92" y="122" width="24" height="24" rx="6" fill="none" stroke="#E8EDF2" stroke-width="1.5"></rect>

<rect x="140" y="122" width="24" height="24" rx="6" fill="none" stroke="#E8EDF2" stroke-width="1.5"></rect>

<rect x="92" y="164" width="24" height="24" rx="6" fill="none" stroke="#E8EDF2" stroke-width="1.5"></rect>

<rect x="140" y="164" width="24" height="24" rx="6" fill="none" stroke="#E8EDF2" stroke-width="1.5"></rect>
</svg>