<svg xmlns="http://www.w3.org/2000/svg" viewBox="0 0 24 24" fill="none" stroke="white" stroke-width="2">
  <circle cx="12" cy="12" r="3"></circle>
  <path d="M19.4 15a1.6 1.6 0 00.3 1.8l.1.1a2 2 0 01-2.8 2.8l-.1-.1a1.6 1.6 0 00-1.8-.3 1.6 1.6 0 00-1 1.5V21a2 2 0 01-4 0v-.2a1.6 1.6 0 00-1-1.5 1.6 1.6 0 00-1.8.3l-.1.1a2 2 0 01-2.8-2.8l.1-.1a1.6 1.6 0 00.3-1.8 1.6 1.6 0 00-1.5-1H3a2 2 0 010-4h.2a1.6 1.6 0 001.5-1 1.6 1.6 0 00-.3-1.8l-.1-.1a2 2 0 012.8-2.8l.1.1a1.6 1.6 0 001.8.3H9a1.6 1.6 0 001-1.5V3a2 2 0 014 0v.2a1.6 1.6 0 001 1.5 1.6 1.6 0 001.8-.3l.1-.1a2 2 0 012.8 2.8l-.1.1a1.6 1.6 0 00-.3 1.8v.1a1.6 1.6 0 001.5 1H21a2 2 0 010 4h-.2a1.6 1.6 0 00-1.4 1z"></path>
</svg>